<svg width="110" height="110" viewBox="0 0 110 110" fill="none" xmlns="http://www.w3.org/2000/svg">
<rect width="110" height="110" rx="16" fill="#F97316"/>
<path d="M28.4493 85.7459L34.7663 72.1863C36.1604 69.8322 34.3659 68.5421 33.2958 66.6498C29.6345 60.1738 28.7921 52.4023 30.5907 45.1969C29.1443 45.1434 27.0726 45.4819 26.2784 43.9509C25.6222 42.6849 26.4606 41.1298 27.8533 40.9224C30.6724 40.5021 34.4047 41.2436 37.3228 40.8836C39.4655 40.3389 39.3557 37.2153 37.2076 36.9102C33.8971 36.4404 29.5407 37.2113 26.099 36.9035C23.2063 36.6452 23.3938 32.8538 26.1057 32.6169L46.183 32.6062C48.4864 31.9571 48.244 28.7907 45.7906 28.5993L28.5711 28.5431C26.2731 27.7107 26.8168 24.385 29.3117 24.4453C39.187 24.7865 49.3448 24.0116 59.1866 24.4453C76.169 25.1947 87.8977 39.9012 85.7456 56.6179C85.0157 62.2896 82.4391 67.4086 78.8099 71.7407L85.2286 78.0494C85.6224 78.5031 85.546 78.8055 85.2286 79.2539C84.5242 80.2495 80.9044 83.7786 79.8732 84.6084C79.308 85.0621 78.8956 85.3404 78.2621 84.7436L71.072 77.5984C69.8252 78.0293 68.6628 78.6891 67.4119 79.1147C61.2262 81.2198 54.0936 81.1542 47.9654 78.8858C46.8726 78.4817 44.817 77.2504 43.7845 77.3066C43.4376 77.3254 42.9809 77.5234 42.6568 77.6626C38.1839 79.567 33.5235 83.3383 29.0707 85.4984L28.4466 85.7433L28.4493 85.7459ZM62.1971 68.8834C62.2574 68.6519 62.1007 68.6157 61.9976 68.4819C61.1217 67.3403 59.6218 66.3794 58.7848 65.1348V64.4697C60.4039 62.8316 62.0485 61.2176 63.6742 59.5863C64.159 59.0991 64.7429 57.9227 65.6201 58.438L70.5483 63.2532C76.473 56.5363 75.4337 45.7576 68.7605 39.9079C60.7427 32.8779 48.1516 35.244 43.1992 44.6134C37.2532 55.8631 45.358 69.2876 57.9706 69.4241L62.1958 68.8834H62.1971Z" fill="#FAFAFA"/>
<path d="M30.5856 69.4097C33.9125 69.1492 33.8316 74.442 30.3136 73.8656C27.8254 73.458 27.905 69.6199 30.5856 69.4097Z" fill="#FAFAFA"/>
<path d="M25.5539 76.1275C26.8297 74.6686 29.5419 76.5122 28.0954 78.3355C26.6661 80.1371 24.1132 77.7752 25.5539 76.1275Z" fill="#FAFAFA"/>
</svg>
