<svg width="14" height="12" viewBox="0 0 14 12" fill="none" xmlns="http://www.w3.org/2000/svg">
<path d="M8.4375 0.625H5.3125L3.75 2.5H1.875C1.54348 2.5 1.22554 2.6317 0.991116 2.86612C0.756696 3.10054 0.625 3.41848 0.625 3.75V9.375C0.625 9.70652 0.756696 10.0245 0.991116 10.2589C1.22554 10.4933 1.54348 10.625 1.875 10.625H11.875C12.2065 10.625 12.5245 10.4933 12.7589 10.2589C12.9933 10.0245 13.125 9.70652 13.125 9.375V3.75C13.125 3.41848 12.9933 3.10054 12.7589 2.86612C12.5245 2.6317 12.2065 2.5 11.875 2.5H10L8.4375 0.625Z" stroke="#FAFAFA" stroke-width="1.25" stroke-linecap="round" stroke-linejoin="round"/>
<path d="M6.875 8.125C7.91053 8.125 8.75 7.28553 8.75 6.25C8.75 5.21447 7.91053 4.375 6.875 4.375C5.83947 4.375 5 5.21447 5 6.25C5 7.28553 5.83947 8.125 6.875 8.125Z" stroke="#FAFAFA" stroke-width="1.25" stroke-linecap="round" stroke-linejoin="round"/>
</svg>
