<svg width="16" height="17" viewBox="0 0 16 17" fill="none" xmlns="http://www.w3.org/2000/svg">
<path d="M5.83398 14.1021C2.25065 15.2688 2.25065 12.0188 0.833984 11.6021M10.834 15.7688V12.8521C10.834 12.0188 10.9173 11.6854 10.4173 11.1854C12.7507 10.9354 15.0007 10.0188 15.0007 6.18542C14.9996 5.18956 14.6111 4.23318 13.9173 3.51876C14.2427 2.65373 14.2128 1.69511 13.834 0.852091C13.834 0.852091 12.9173 0.602091 10.9173 1.93542C9.22335 1.49425 7.44462 1.49425 5.75065 1.93542C3.75065 0.602091 2.83398 0.852091 2.83398 0.852091C2.45522 1.69511 2.42526 2.65373 2.75065 3.51876C2.05686 4.23318 1.66833 5.18956 1.66732 6.18542C1.66732 10.0188 3.91732 10.9354 6.25065 11.1854C5.75065 11.6854 5.75065 12.1854 5.83398 12.8521V15.7688" stroke="#0A0A0A" stroke-width="1.66667" stroke-linecap="round" stroke-linejoin="round"/>
</svg>
