<svg width="21" height="27" viewBox="0 0 21 27" fill="none" xmlns="http://www.w3.org/2000/svg">
<path d="M15.75 6.5625C15.75 7.95489 15.1969 9.29024 14.2123 10.2748C13.2277 11.2594 11.8924 11.8125 10.5 11.8125C9.10761 11.8125 7.77225 11.2594 6.78769 10.2748C5.80312 9.29024 5.25 7.95489 5.25 6.5625C5.25 5.17011 5.80312 3.83476 6.78769 2.85019C7.77225 1.86562 9.10761 1.3125 10.5 1.3125C11.8924 1.3125 13.2277 1.86562 14.2123 2.85019C15.1969 3.83476 15.75 5.17011 15.75 6.5625ZM10.5 15.75C8.06332 15.75 5.72645 16.718 4.00346 18.441C2.28047 20.1639 1.3125 22.5008 1.3125 24.9375H19.6875C19.6875 22.5008 18.7195 20.1639 16.9965 18.441C15.2736 16.718 12.9367 15.75 10.5 15.75Z" stroke="black" stroke-width="2.625" stroke-linecap="round" stroke-linejoin="round"/>
</svg>
