<svg width="17" height="17" viewBox="0 0 17 17" fill="none" xmlns="http://www.w3.org/2000/svg">
<path d="M9.16732 11.6666H8.33398V8.33325H7.50065M8.33398 4.99992H8.34232M15.834 8.33325C15.834 9.31817 15.64 10.2934 15.2631 11.2034C14.8862 12.1133 14.3337 12.9401 13.6373 13.6366C12.9408 14.333 12.1141 14.8854 11.2041 15.2623C10.2942 15.6393 9.3189 15.8333 8.33398 15.8333C7.34907 15.8333 6.3738 15.6393 5.46386 15.2623C4.55392 14.8854 3.72712 14.333 3.03068 13.6366C2.33424 12.9401 1.7818 12.1133 1.40489 11.2034C1.02798 10.2934 0.833984 9.31817 0.833984 8.33325C0.833984 6.34413 1.62416 4.43647 3.03068 3.02995C4.43721 1.62343 6.34486 0.833252 8.33398 0.833252C10.3231 0.833252 12.2308 1.62343 13.6373 3.02995C15.0438 4.43647 15.834 6.34413 15.834 8.33325Z" stroke="#525252" stroke-width="1.66667" stroke-linecap="round" stroke-linejoin="round"/>
</svg>
