<svg width="192" height="192" viewBox="0 0 192 192" fill="none" xmlns="http://www.w3.org/2000/svg">
<rect width="192" height="192" rx="27.9273" fill="#F97316"/>
<g clip-path="url(#clip0_630_345)">
<path d="M49.6569 149.665L60.683 125.997C63.1163 121.888 59.9841 119.636 58.1164 116.333C51.7256 105.03 50.2553 91.465 53.3946 78.8883C50.8701 78.7948 47.254 79.3858 45.8678 76.7135C44.7224 74.5037 46.1857 71.7894 48.6167 71.4273C53.5372 70.6938 60.0518 71.9879 65.1453 71.3596C68.8853 70.4088 68.6936 64.9568 64.9443 64.4242C59.1659 63.6042 51.562 64.9498 45.5546 64.4125C40.5056 63.9617 40.8328 57.3439 45.5663 56.9305L80.6103 56.9118C84.6308 55.7789 84.2077 50.252 79.9254 49.918L49.8696 49.8199C45.8585 48.3669 46.8075 42.5621 51.1623 42.6673C68.3991 43.2629 86.1291 41.9104 103.307 42.6673C132.949 43.9754 153.421 69.645 149.665 98.8232C148.391 108.723 143.894 117.658 137.559 125.219L148.763 136.231C149.45 137.023 149.317 137.551 148.763 138.333C147.533 140.071 141.215 146.231 139.415 147.679C138.429 148.471 137.709 148.957 136.603 147.915L124.053 135.444C121.877 136.196 119.848 137.347 117.664 138.09C106.868 141.765 94.4179 141.65 83.7215 137.691C81.8141 136.985 78.226 134.836 76.4238 134.934C75.8184 134.967 75.0213 135.313 74.4556 135.556C66.6483 138.88 58.5138 145.462 50.7415 149.233L49.6523 149.66L49.6569 149.665ZM108.562 120.232C108.667 119.828 108.394 119.765 108.214 119.531C106.685 117.539 104.067 115.861 102.606 113.689V112.528C105.432 109.669 108.303 106.852 111.14 104.004C111.987 103.154 113.006 101.101 114.537 102L123.139 110.405C133.48 98.6807 131.666 79.867 120.018 69.6567C106.024 57.386 84.0464 61.5159 75.4023 77.8698C65.0237 97.5057 79.1704 120.937 101.185 121.176L108.56 120.232H108.562Z" fill="#FAFAFA"/>
<path d="M53.3859 121.151C59.1928 120.696 59.0515 129.934 52.9111 128.928C48.568 128.217 48.707 121.518 53.3859 121.151Z" fill="#FAFAFA"/>
<path d="M44.6034 132.876C46.8301 130.33 51.5642 133.548 49.0393 136.73C46.5446 139.874 42.0886 135.752 44.6034 132.876Z" fill="#FAFAFA"/>
</g>
<defs>
<clipPath id="clip0_630_345">
<rect width="108.218" height="117.072" fill="white" transform="translate(41.8909 37.5114)"/>
</clipPath>
</defs>
</svg>
